<svg xmlns="http://www.w3.org/2000/svg" xmlns:xlink="http://www.w3.org/1999/xlink" version="1.1" x="0px" y="0px" viewBox="0 0 100 125" enable-background="new 0 0 100 100" xml:space="preserve"><g><rect x="-192" width="185" height="99"/><rect y="-36" width="100" height="30"/><text transform="matrix(1 0 0 1 66 -19.5)" fill="#000000" font-family="'Helvetica'" font-size="2.4">http://thenounproject.com</text><text transform="matrix(1 0 0 1 7.166 -24.5)"><tspan x="0" y="0" fill="#000000" font-family="'Helvetica-Bold'" font-size="6.1578">The Noun Project</tspan><tspan x="1.12" y="4.8" fill="#000000" font-family="'Helvetica-Bold'" font-size="4">Icon Template</tspan></text><text transform="matrix(1 0 0 1 -178.5 10.5)" fill="#000000" font-family="'Helvetica-Bold'" font-size="6.1578">Reminders</text><line fill="#000000" stroke="#FFFFFF" stroke-miterlimit="10" x1="8" y1="-14.5" x2="18" y2="-14.5"/><line fill="#000000" stroke="#FFFFFF" stroke-miterlimit="10" x1="-179" y1="16.5" x2="-162" y2="16.5"/><g><g><g><rect x="-170.802" y="31.318" fill="#000000" width="8.721" height="8.642"/><path fill="#000000" d="M-164.455,42.312h4.747v-4.703h-4.747V42.312z M-159.266,42.749h-5.63V37.17h5.63V42.749      L-159.266,42.749z M-166.221,44.062h8.279v-8.203h-8.279V44.062L-166.221,44.062z M-157.5,44.5h-9.163v-9.079h9.163V44.5      L-157.5,44.5z"/><polygon fill="#000000" points="-166.149,44.133 -166.292,43.991 -158.013,35.787 -157.871,35.929     "/></g></g></g><rect x="-179" y="58" fill="none" width="35" height="32.5"/><text transform="matrix(1 0 0 1 -179 60.1572)"><tspan x="0" y="0" fill="#000000" font-family="'Helvetica-Bold'" font-size="3">Strokes</tspan><tspan x="0" y="5" fill="#000000" font-family="'Helvetica'" font-size="2.4">Try to keep strokes at 4px</tspan><tspan x="0" y="10" fill="#000000" font-family="'Helvetica'" font-size="2.4">Minimum stroke weight is 2px</tspan><tspan x="0" y="14.5" fill="#000000" font-family="'Helvetica'" font-size="2.4">For thicker strokes use even </tspan><tspan x="0" y="17.5" fill="#000000" font-family="'Helvetica'" font-size="2.4">numbers: 6px, 8px etc.</tspan><tspan x="0" y="22" fill="#000000" font-family="'Helvetica-Bold'" font-size="2.4">Remember to expand strokes </tspan><tspan x="0" y="25" fill="#000000" font-family="'Helvetica-Bold'" font-size="2.4">before saving as an SVG </tspan></text><rect x="-136.5" y="58" fill="none" width="35" height="32.5"/><text transform="matrix(1 0 0 1 -136.5 60.1572)"><tspan x="0" y="0" fill="#000000" font-family="'Helvetica-Bold'" font-size="3">Size</tspan><tspan x="0" y="5" fill="#000000" font-family="'Helvetica'" font-size="2.4">Cannot be wider or taller than </tspan><tspan x="0" y="8.5" fill="#000000" font-family="'Helvetica'" font-size="2.4">100px (artboard size)</tspan><tspan x="0" y="13.5" fill="#000000" font-family="'Helvetica'" font-size="2.4">Scale your icon to fill as much of </tspan><tspan x="0" y="16.5" fill="#000000" font-family="'Helvetica'" font-size="2.4">the artboard as possible</tspan></text><rect x="-94" y="58" fill="none" width="35" height="32.5"/><text transform="matrix(1 0 0 1 -94 60.1572)"><tspan x="0" y="0" fill="#000000" font-family="'Helvetica-Bold'" font-size="3">Ungroup</tspan><tspan x="0" y="5" fill="#000000" font-family="'Helvetica'" font-size="2.4">If your design has more than one </tspan><tspan x="0" y="8" fill="#000000" font-family="'Helvetica'" font-size="2.4">shape, make sure to ungroup</tspan></text><rect x="-50" y="58" fill="none" width="35" height="32.5"/><text transform="matrix(1 0 0 1 -50 60.1572)"><tspan x="0" y="0" fill="#000000" font-family="'Helvetica-Bold'" font-size="3">Save as</tspan><tspan x="0" y="5" fill="#000000" font-family="'Helvetica'" font-size="2.4">Save as .SVG and make sure </tspan><tspan x="0" y="8" fill="#000000" font-family="'Helvetica'" font-size="2.4">“Use Artboards” is checked</tspan></text><text transform="matrix(1.0074 0 0 1 -125.542 30.5933)" fill="#000000" font-family="'Helvetica'" font-size="2.5731">100px</text><text transform="matrix(1.0074 0 0 1 -41 39)" fill="#000000" font-family="'Helvetica-Bold'" font-size="5.1462">.SVG</text><rect x="-126.514" y="34.815" fill="#000000" width="10.261" height="10.185"/><rect x="-126.477" y="31.766" fill="#000000" width="0.522" height="2.337"/><rect x="-116.813" y="31.766" fill="#000000" width="0.523" height="2.337"/><rect x="-127" y="32.337" fill="#000000" width="11.233" height="0.572"/><g><rect x="-83.805" y="33.844" fill="#000000" width="10.305" height="10.156"/><rect x="-76.809" y="28.707" fill="#000000" width="3.308" height="3.261"/></g><rect x="-178.5" y="22.5" fill="#000000" stroke="#FFFFFF" stroke-miterlimit="10" width="30" height="30"/><rect x="-136.5" y="22.5" fill="#000000" stroke="#FFFFFF" stroke-miterlimit="10" width="30" height="30"/><rect x="-93.5" y="22.5" fill="#000000" stroke="#FFFFFF" stroke-miterlimit="10" width="30" height="30"/><rect x="-49.5" y="22.5" fill="#000000" stroke="#FFFFFF" stroke-miterlimit="10" width="30" height="30"/></g><g><g><g><path fill-rule="evenodd" clip-rule="evenodd" fill="none" d="M43.932,5.24c15.84,0,31.68,0.008,47.521-0.023     c0.821-0.001,0.983,0.162,0.982,0.983c-0.027,29.76-0.027,59.52,0,89.28c0.001,0.821-0.161,0.983-0.982,0.982     c-26.721-0.027-53.44-0.027-80.16,0c-0.822,0.001-1.142-0.161-0.96-0.982c0.989,0.854,2.06,0.885,3.249,0.429     c1.454-0.558,2.945-1.017,4.416-1.531c12.796-4.48,24.673-10.575,34.817-19.741c6.53-5.9,11.421-12.896,14.417-21.2     c2.281-6.323,2.811-12.864,2.398-19.497c-0.292-4.693-1.25-9.253-3.378-13.515c-3.026-6.061-7.419-10.658-13.832-13.14     C49.681,6.226,46.805,5.74,43.932,5.24z M77.208,19.527c0,3.435,2.519,6.018,5.921,6.074c3.39,0.055,6.183-2.692,6.137-6.037     c-0.049-3.49-2.614-6.017-6.103-6.01C79.72,13.561,77.208,16.08,77.208,19.527z M83.211,52.127     c3.437-0.002,6.037-2.562,6.046-5.951c0.009-3.325-2.83-6.145-6.141-6.099c-3.38,0.047-5.924,2.678-5.908,6.106     C77.224,49.623,79.755,52.129,83.211,52.127z"/><path fill-rule="evenodd" clip-rule="evenodd" fill="none" d="M10.332,95c0-29.529,0.008-59.059-0.033-88.588     c-0.001-1.087,0.314-1.199,1.258-1.194C19.708,5.256,27.86,5.24,36.012,5.24c-2.983,0.577-5.934,1.217-8.695,2.586     c-10.11,5.015-15.213,15.594-12.458,26.016c1.42,5.375,4.389,9.237,10.281,9.997c4.981,0.642,11.343-1.224,13.083-8.23     c0.64-2.577,0.609-5.136-0.022-7.706c-1.021-4.157-3.731-6.593-7.794-7.593c-3.474-0.854-6.433,0.452-9.222,2.363     c-0.313,0.214-0.614,0.727-0.997,0.504c-0.424-0.246-0.212-0.814-0.155-1.223c0.419-3.021,1.846-5.492,4.143-7.484     c3.407-2.954,7.398-4.592,11.842-5.022c5.374-0.521,10.046,0.947,13.583,5.275c2.116,2.588,3.488,5.545,4.329,8.746     c1.947,7.423,2.352,14.964,1.76,22.599c-0.648,8.356-3.515,15.856-8.348,22.656c-5.436,7.647-12.547,13.378-20.606,18.017     c-4.584,2.64-9.525,4.532-14.325,6.72C11.604,93.827,10.792,94.173,10.332,95z"/><path fill-rule="evenodd" clip-rule="evenodd" d="M10.332,95c0.46-0.827,1.272-1.173,2.078-1.539     c4.8-2.188,9.741-4.08,14.325-6.72c8.059-4.639,15.17-10.369,20.606-18.017c4.833-6.8,7.699-14.3,8.348-22.656     c0.592-7.635,0.188-15.176-1.76-22.599c-0.841-3.201-2.213-6.158-4.329-8.746c-3.538-4.328-8.21-5.795-13.583-5.275     c-4.443,0.43-8.435,2.068-11.842,5.022c-2.297,1.992-3.724,4.463-4.143,7.484c-0.057,0.409-0.27,0.977,0.155,1.223     c0.383,0.223,0.685-0.29,0.997-0.504c2.789-1.911,5.748-3.217,9.222-2.363c4.063,1,6.773,3.436,7.794,7.593     c0.631,2.57,0.662,5.129,0.022,7.706c-1.74,7.007-8.102,8.873-13.083,8.23c-5.892-0.76-8.861-4.622-10.281-9.997     C12.104,23.42,17.206,12.841,27.316,7.827c2.761-1.369,5.712-2.01,8.695-2.586c2.64,0,5.28,0,7.92,0     c2.873,0.5,5.75,0.985,8.487,2.044c6.413,2.481,10.806,7.079,13.832,13.14c2.128,4.262,3.086,8.822,3.378,13.515     c0.412,6.633-0.117,13.174-2.398,19.497c-2.996,8.304-7.887,15.3-14.417,21.2C42.67,83.803,30.792,89.897,17.997,94.378     c-1.471,0.515-2.962,0.974-4.416,1.531c-1.189,0.456-2.259,0.426-3.249-0.429C10.332,95.32,10.332,95.16,10.332,95z"/><path fill-rule="evenodd" clip-rule="evenodd" d="M77.208,19.527c0-3.447,2.512-5.966,5.955-5.973     c3.488-0.007,6.054,2.52,6.103,6.01c0.046,3.344-2.747,6.091-6.137,6.037C79.727,25.545,77.208,22.962,77.208,19.527z"/><path fill-rule="evenodd" clip-rule="evenodd" d="M83.211,52.127c-3.456,0.002-5.987-2.504-6.003-5.943     c-0.016-3.429,2.528-6.059,5.908-6.106c3.311-0.046,6.149,2.774,6.141,6.099C89.248,49.565,86.647,52.125,83.211,52.127z"/></g></g></g><text x="0" y="115" fill="#000000" font-size="5px" font-weight="bold" font-family="'Helvetica Neue', Helvetica, Arial-Unicode, Arial, Sans-serif">Created by Rhys de Dezsery</text><text x="0" y="120" fill="#000000" font-size="5px" font-weight="bold" font-family="'Helvetica Neue', Helvetica, Arial-Unicode, Arial, Sans-serif">from the Noun Project</text></svg>