<svg xmlns:dc="http://purl.org/dc/elements/1.1/" xmlns:cc="http://creativecommons.org/ns#" xmlns:rdf="http://www.w3.org/1999/02/22-rdf-syntax-ns#" xmlns:svg="http://www.w3.org/2000/svg" xmlns="http://www.w3.org/2000/svg" xmlns:sodipodi="http://sodipodi.sourceforge.net/DTD/sodipodi-0.dtd" xmlns:inkscape="http://www.inkscape.org/namespaces/inkscape" version="1.1" x="0px" y="0px" viewBox="0 0 100 125"><g transform="translate(0,-952.36218)"><path style="text-indent:0;text-transform:none;direction:ltr;block-progression:tb;baseline-shift:baseline;color:#000000;enable-background:accumulate;" d="m 75.878446,968.36754 -30,4 c -0.9613,0.1212 -1.7575,1.0312 -1.75,2 0,16.3191 0,24.6171 0,40.94096 -1.3386,-0.7333 -2.9004,-1.1468 -4.5,-1.25 -3.073,-0.1982 -6.4432,0.6318 -9.625,2.4687 -3.1818,1.837 -5.6038,4.3646 -6.9688,7.125 -1.3648,2.7606 -1.6661,5.9162 -0.1562,8.5314 1.5099,2.6152 4.3956,3.958 7.4688,4.1563 3.073,0.1981 6.4744,-0.6632 9.6562,-2.5 3.1818,-1.837 5.6038,-4.3334 6.9688,-7.0938 0.8918,-1.5312 1.2367,-3.7778 1.156,-5.3751 l 0,-37.25011 28.25,-3.7812 c 0.9509,-0.1199 1.7425,-1.0104 1.75,-1.9688 l 0,-8.00335 c -0.059,-1.6078 -1.1954,-2.0931 -2.2498,-2 z" fill-opacity="1" marker="none" visibility="visible" display="inline" overflow="visible"/></g><text x="0" y="115" fill="#000000" font-size="5px" font-weight="bold" font-family="'Helvetica Neue', Helvetica, Arial-Unicode, Arial, Sans-serif">Created by Three Six Five</text><text x="0" y="120" fill="#000000" font-size="5px" font-weight="bold" font-family="'Helvetica Neue', Helvetica, Arial-Unicode, Arial, Sans-serif">from the Noun Project</text></svg>