<svg xmlns="http://www.w3.org/2000/svg" xmlns:xlink="http://www.w3.org/1999/xlink" version="1.1" x="0px" y="0px" viewBox="0 0 100 125" enable-background="new 0 0 100 100" xml:space="preserve"><g><path fill-rule="evenodd" clip-rule="evenodd" fill="none" d="M-3.868,121.896c0-44.383,0.001-88.765-0.016-133.148   c0-0.564,0.148-0.628,0.657-0.628c56.906,0.014,113.812,0.014,170.718,0c0.51,0,0.657,0.064,0.657,0.628   c-0.018,44.383-0.017,88.765-0.017,133.148c-0.307-0.015-0.614-0.043-0.922-0.043c-56.719-0.002-113.437-0.002-170.155,0   C-3.253,121.853-3.561,121.881-3.868,121.896z M147.299,49.755c-0.309,0-0.626-0.048-0.924,0.01   c-0.575,0.112-0.752-0.127-0.853-0.667c-0.344-1.863-0.698-3.726-1.142-5.567c-0.226-0.934-0.251-1.707,0.611-2.319   c0.21-0.149,0.354-0.39,0.525-0.592c3.814-4.503,6.113-9.649,6.199-15.594c0.063-4.405-1.27-8.511-3.37-12.366   c-0.219-0.402-0.504-0.78-0.813-1.12c-0.589-0.646-0.979-0.691-1.757-0.291c-1.027,0.529-1.816,1.326-2.449,2.269   c-2.187,3.261-3.103,6.948-3.389,10.789c-0.272,3.653,0.265,7.256,1.101,10.81c0.131,0.558,0.045,0.917-0.365,1.336   c-2.758,2.821-5.558,5.604-7.844,8.847c-3.854,5.464-5.088,11.295-2.602,17.687c2.603,6.694,9.352,11.734,17.71,9.72   c0.498-0.12,0.612,0.083,0.696,0.487c0.49,2.35,0.987,4.699,1.494,7.046c0.267,1.239,0.327,2.491,0.241,3.749   c-0.288,4.237-4.342,7.098-8.442,5.962c-0.665-0.185-1.292-0.454-1.739-1.019c-0.108-0.138-0.251-0.294-0.19-0.472   c0.076-0.221,0.304-0.119,0.466-0.13c2.096-0.14,3.763-1.619,4.113-3.66c0.341-1.979-0.787-4.11-2.663-5.027   c-1.687-0.826-3.601-0.388-5.034,1.151c-1.744,1.873-2.03,4.876-0.678,7.13c1.727,2.875,5.295,4.429,8.731,3.79   c3.437-0.638,5.959-2.365,6.893-5.908c0.446-1.689,0.384-3.402,0.045-5.109c-0.524-2.636-1.011-5.28-1.586-7.904   c-0.161-0.739,0.064-1.048,0.682-1.382c5.171-2.797,7.492-7.771,6.213-13.363C156.046,53.083,152.014,49.521,147.299,49.755z    M52.599,95.285c-0.341-0.173-0.583-0.318-0.843-0.423c-0.264-0.106-0.541-0.188-0.818-0.255c-2.584-0.631-4.943-0.012-7.133,1.365   c-1.924,1.21-3.532,2.725-4.26,4.965c-0.64,1.968,0.084,3.852,1.863,4.895c0.812,0.476,1.697,0.738,2.643,0.75   c3.037,0.035,5.574-1.162,7.715-3.235c1.529-1.481,2.265-3.296,2.228-5.464c-0.06-3.438-0.026-6.879-0.026-10.319   c-0.002-9.503-0.001-19.007-0.001-28.511c0-1.059,0.001-1.048-1.012-0.866c-4.01,0.721-8.022,1.433-12.033,2.152   c-6.266,1.123-12.529,2.262-18.799,3.356c-0.724,0.127-0.908,0.405-0.906,1.113c0.023,9.238,0.016,18.478,0.016,27.716   c0,2.58-0.012,5.16,0.009,7.74c0.005,0.567-0.114,0.657-0.602,0.35c-0.411-0.26-0.895-0.367-1.376-0.446   c-3.945-0.647-8.483,1.521-10.477,4.994c-0.659,1.148-0.973,2.362-0.718,3.681c0.406,2.101,2.6,3.486,5.132,3.382   c2.628-0.108,4.912-1.161,6.858-2.92c1.707-1.541,2.609-3.431,2.568-5.783c-0.053-3.107-0.013-6.218-0.013-9.326   c0-8.313,0.009-16.626-0.016-24.938c-0.002-0.727,0.211-0.997,0.933-1.096c1.483-0.202,2.952-0.508,4.426-0.773   c7.978-1.435,15.956-2.866,23.932-4.314c0.554-0.101,0.716,0.021,0.715,0.604c-0.015,9.106-0.007,18.214-0.004,27.32   C52.6,92.401,52.599,93.806,52.599,95.285z M95.717,99.57c-1.294-0.883-2.641-1.072-4.017-1.123   c-3.235-0.118-5.897,1.254-8.28,3.277c-1.413,1.2-2.553,2.617-3.101,4.437c-0.778,2.583,0.321,4.977,2.793,6.043   c0.9,0.389,1.847,0.608,2.827,0.585c3.003-0.072,5.635-1.148,7.921-3.062c2.102-1.759,3.428-3.894,3.411-6.771   c-0.043-7.628-0.017-15.257-0.01-22.886c0-0.413-0.19-1.038,0.089-1.188c0.358-0.193,0.744,0.324,1.104,0.548   c2.655,1.655,5.379,3.201,7.896,5.075c3.511,2.614,4.501,6.219,4.109,10.346c-0.235,2.48-0.998,4.827-2.186,7.024   c-0.233,0.433-0.06,0.553,0.354,0.551c0.297-0.001,0.497-0.146,0.633-0.399c0.22-0.408,0.46-0.806,0.656-1.224   c2.221-4.735,2.879-9.548,0.687-14.491c-0.127-0.287-0.092-0.545-0.014-0.831c0.422-1.561,0.646-3.156,0.662-4.768   c0.039-3.695-1.294-6.938-3.449-9.869c-1.824-2.482-4.047-4.595-6.329-6.645c-1.196-1.075-2.447-2.092-3.152-3.604   c-0.587-1.257-0.914-2.565-0.981-3.948c-0.02-0.398-0.057-0.786-0.644-0.8c-0.892-0.021-0.979,0.028-0.979,0.938   c-0.001,13.956-0.001,27.913-0.001,41.87C95.717,98.916,95.717,99.178,95.717,99.57z M96.034,14.592c0,4.652,0,9.303-0.001,13.955   c0,1.455-0.005,2.91,0,4.365c0.002,0.389-0.082,0.553-0.488,0.304c-0.516-0.315-1.101-0.439-1.689-0.541   c-2.864-0.491-5.356,0.414-7.621,2.082c-1.473,1.085-2.732,2.375-3.378,4.143c-0.911,2.495,0.091,4.72,2.556,5.689   c1.808,0.71,3.596,0.438,5.365-0.15c4.486-1.493,6.69-4.536,6.69-9.219c0-3.79,0-7.58,0-11.37c0-4.651-0.001-9.303,0.001-13.955   c0-0.841,0.076-0.908,0.867-0.715c3.548,0.865,6.169,2.971,7.911,6.129c1.959,3.552,1.946,7.292,0.8,11.09   c-0.601,1.99-1.463,3.873-2.342,5.749c-0.079,0.169-0.253,0.382-0.039,0.534c0.203,0.143,0.479,0.124,0.687-0.022   c0.136-0.096,0.229-0.264,0.314-0.416c0.292-0.518,0.585-1.037,0.854-1.567c1.59-3.132,2.739-6.404,2.997-9.932   c0.277-3.794-1.138-7.029-3.429-9.945c-1.076-1.371-2.312-2.603-3.479-3.895c-1.195-1.323-2.457-2.591-3.365-4.152   c-1.152-1.979-1.494-4.171-1.72-6.393c-0.051-0.498-0.263-0.67-0.754-0.693c-0.738-0.035-0.742,0.413-0.742,0.939   C96.035,2.603,96.033,8.597,96.034,14.592z M57.753,32.889c-1.341-0.839-2.722-1.003-4.11-0.886   c-3.405,0.29-6.021,2.018-7.959,4.748c-1.054,1.484-1.522,3.188-0.566,4.917c0.96,1.736,2.59,2.387,4.503,2.342   c3.5-0.082,6.254-1.631,8.333-4.4c0.786-1.048,1.169-2.272,1.17-3.588c0.006-12.981,0.004-25.963,0.002-38.945   c0-0.78-0.123-0.862-0.896-0.797c-0.658,0.055-0.469,0.542-0.469,0.891c-0.01,9.389-0.008,18.778-0.008,28.167   C57.753,27.805,57.753,30.271,57.753,32.889z M20.915,16.333c0-6.615,0.001-13.23-0.001-19.846c0-0.769-0.115-0.858-0.812-0.835   c-0.679,0.022-0.551,0.507-0.551,0.902c-0.005,8.997-0.004,17.993-0.004,26.99c0,2.448,0,4.895,0,7.343   c0,0.852,0,0.846-0.749,0.511c-0.484-0.217-0.984-0.388-1.516-0.448c-3.216-0.363-5.942,0.75-8.305,2.84   c-1.867,1.651-2.739,3.714-2.441,6.254c0.25,2.128,1.595,3.508,3.734,3.688c3.052,0.257,5.688-0.712,7.97-2.706   c1.805-1.577,2.734-3.493,2.702-5.974C20.86,28.814,20.915,22.573,20.915,16.333z"/><path fill-rule="evenodd" clip-rule="evenodd" d="M51.381,48.171c5.356-0.266,9.938,3.781,11.227,9.421   c1.453,6.353-1.184,12.004-7.059,15.181c-0.701,0.38-0.957,0.73-0.773,1.568c0.653,2.982,1.205,5.986,1.801,8.979   c0.386,1.939,0.456,3.886-0.051,5.805c-1.061,4.025-3.926,5.988-7.83,6.712c-3.904,0.726-7.958-1.038-9.919-4.305   c-1.537-2.561-1.211-5.973,0.77-8.101c1.628-1.748,3.803-2.245,5.719-1.307c2.131,1.04,3.413,3.461,3.025,5.711   c-0.398,2.318-2.292,3.998-4.673,4.158c-0.184,0.011-0.443-0.104-0.529,0.146c-0.069,0.202,0.093,0.379,0.216,0.537   c0.508,0.641,1.221,0.947,1.976,1.155c4.658,1.292,9.264-1.959,9.59-6.771c0.098-1.429,0.029-2.851-0.273-4.26   c-0.576-2.665-1.141-5.334-1.697-8.003c-0.096-0.46-0.226-0.69-0.791-0.556c-9.496,2.29-17.163-3.437-20.119-11.04   c-2.825-7.263-1.422-13.886,2.955-20.094c2.597-3.685,5.778-6.846,8.911-10.051c0.466-0.477,0.563-0.883,0.415-1.518   c-0.95-4.037-1.56-8.131-1.25-12.28c0.325-4.363,1.366-8.553,3.85-12.257c0.719-1.071,1.615-1.977,2.782-2.578   c0.884-0.456,1.327-0.404,1.996,0.33c0.351,0.385,0.675,0.815,0.924,1.272c2.386,4.379,3.899,9.044,3.828,14.048   c-0.098,6.753-2.709,12.599-7.042,17.715c-0.194,0.229-0.358,0.503-0.597,0.672c-0.979,0.695-0.951,1.574-0.694,2.635   c0.503,2.091,0.906,4.208,1.297,6.324c0.114,0.614,0.315,0.886,0.969,0.758C50.67,48.117,51.031,48.171,51.381,48.171z    M48.241,72.824c1.144,0.031,2.245-0.186,3.353-0.403c0.668-0.131,0.777-0.444,0.643-1.059c-0.354-1.61-0.658-3.235-0.977-4.854   c-0.713-3.608-1.422-7.216-2.134-10.823c-0.182-0.923-0.264-0.959-1.12-0.551c-1.13,0.542-2.047,1.343-2.815,2.321   c-2.508,3.19-1.941,7.23,1.318,9.358c0.418,0.273,0.871,0.493,1.3,0.75c0.254,0.155,0.42,0.38,0.31,0.692   c-0.104,0.289-0.341,0.439-0.641,0.431c-0.194-0.007-0.396-0.056-0.581-0.124c-4.656-1.722-7.483-7.244-6.101-12.004   c0.979-3.368,3.064-5.866,6.181-7.479c0.48-0.248,0.768-0.483,0.641-1.08c-0.437-2.081-0.861-4.165-1.255-6.254   c-0.116-0.619-0.25-0.716-0.754-0.266c-1.906,1.704-3.771,3.447-5.447,5.381c-2.268,2.616-4.177,5.453-5.078,8.845   c-1.129,4.259-0.796,8.323,1.993,11.906C39.894,71.229,43.781,72.676,48.241,72.824z M46.08,30.717   c0.084,0.038,0.169,0.075,0.255,0.114c0.628-0.68,1.262-1.353,1.882-2.039c2.765-3.06,4.916-6.454,5.666-10.585   c0.257-1.406,0.45-2.831-0.1-4.224c-0.687-1.74-2.227-2.278-3.824-1.333c-1.449,0.857-2.311,2.209-2.951,3.696   c-1.41,3.275-2.024,6.697-1.655,10.261C45.495,27.992,45.678,29.377,46.08,30.717z M59.261,63.808   c0.009-2.468-0.558-4.233-1.672-5.807c-1.46-2.055-3.472-3.187-5.981-3.438c-0.551-0.055-0.794,0.122-0.672,0.722   c1.063,5.216,2.121,10.435,3.162,15.658c0.121,0.609,0.332,0.576,0.771,0.274C57.663,69.301,59.152,66.674,59.261,63.808z"/><path fill-rule="evenodd" clip-rule="evenodd" fill="none" d="M97.257,66.533c4.135,2.358,7.896,4.884,10.444,8.865   c1.297,2.027,2.049,4.186,1.922,6.611c-0.037,0.696,0.07,1.403-0.139,2.208c-0.479-0.632-0.888-1.19-1.316-1.734   c-1.633-2.071-3.618-3.788-5.553-5.562c-2.603-2.385-4.392-5.267-5.138-8.749C97.373,67.684,97.342,67.179,97.257,66.533z"/><path fill-rule="evenodd" clip-rule="evenodd" fill="none" d="M9.653,41.697c-1.284,0.02-1.634-0.384-1.468-1.492   c0.07-0.47,0.237-0.906,0.517-1.275c2.196-2.902,5.044-4.883,8.523-5.939c0.638-0.194,1.371-0.278,1.837,0.334   c0.466,0.612,0.161,1.281-0.165,1.863c-1.097,1.961-2.806,3.319-4.613,4.562c-1.223,0.842-2.536,1.515-3.999,1.846   C10.029,41.654,9.765,41.679,9.653,41.697z"/></g><text x="0" y="115" fill="#000000" font-size="5px" font-weight="bold" font-family="'Helvetica Neue', Helvetica, Arial-Unicode, Arial, Sans-serif">Created by Rhys de Dezsery</text><text x="0" y="120" fill="#000000" font-size="5px" font-weight="bold" font-family="'Helvetica Neue', Helvetica, Arial-Unicode, Arial, Sans-serif">from the Noun Project</text></svg>